<svg width="25" height="25" viewBox="0 0 25 25" fill="none" xmlns="http://www.w3.org/2000/svg">
<path d="M2.22473 18.7073L2.27895 18.5074L2.17591 18.3277C1.17228 16.5774 0.587107 14.4926 0.587107 12.4132C0.587107 5.83334 5.93652 0.5 12.5436 0.5C15.7205 0.5 18.7297 1.74902 20.9885 4C23.2403 6.24401 24.4145 9.24076 24.5 12.3332C24.4963 18.9099 19.1483 24.2396 12.5436 24.2396C10.5377 24.2396 8.61324 23.7402 6.85158 22.8206L6.68029 22.7312L6.49338 22.7802L0.708657 24.2973L2.22473 18.7073ZM14.3619 18.6936L14.3933 18.7062L14.4262 18.7143C15.1913 18.905 15.9551 18.9065 16.54 18.8101C16.9451 18.7508 17.4701 18.5149 17.9135 18.2241C18.3488 17.9387 18.8332 17.518 19.022 17.0164C19.1692 16.6251 19.2447 16.2537 19.2702 15.9363C19.2947 15.6303 19.2757 15.3382 19.2024 15.1192L19.1649 15.0071L19.0812 14.9236C18.9854 14.8282 18.8682 14.7572 18.7635 14.6993C18.659 14.6414 18.5249 14.5744 18.3654 14.495C18.1785 14.3781 17.7167 14.1392 17.2962 13.9296C17.0651 13.8145 16.8328 13.7015 16.6405 13.6112C16.461 13.527 16.2848 13.4474 16.1855 13.4144C16.1786 13.4121 16.1712 13.4096 16.1632 13.4069C16.0514 13.3692 15.8296 13.2943 15.6017 13.315C15.4609 13.3277 15.3139 13.375 15.179 13.475C15.0481 13.572 14.9535 13.7001 14.8841 13.8383C14.8253 13.9554 14.664 14.1762 14.4655 14.418C14.275 14.6499 14.0907 14.853 14.0199 14.9236L14.3728 15.2778L14.0199 14.9236C14.0063 14.9371 13.9956 14.9469 13.9875 14.9539C13.9694 14.9485 13.9406 14.9378 13.8989 14.9171C13.8389 14.8871 13.7661 14.854 13.6815 14.8155C13.2334 14.6117 12.4539 14.2572 11.4801 13.4266C10.6059 12.6331 10.0438 11.7668 9.87216 11.4418C9.8889 11.4244 9.90911 11.4041 9.93482 11.3785L9.58188 11.0243L9.93482 11.3785C9.97909 11.3344 10.0221 11.2814 10.0534 11.2421C10.0758 11.214 10.1015 11.1808 10.1264 11.1487C10.1383 11.1334 10.1501 11.1183 10.1611 11.1041C10.2374 11.0064 10.3076 10.9202 10.3704 10.8576C10.6024 10.6264 10.7201 10.3916 10.8068 10.2188L10.8128 10.2069C10.9707 9.89215 10.9707 9.55229 10.8128 9.23758L10.7763 9.16497L10.7625 9.15122C10.7616 9.14934 10.7606 9.14736 10.7596 9.14529C10.7388 9.10261 10.7101 9.03968 10.6743 8.95777C10.6032 8.79513 10.5125 8.57717 10.4146 8.33877C10.3538 8.19067 10.2902 8.03434 10.2273 7.88003C10.0907 7.54468 9.95794 7.2188 9.86699 7.00732C9.71355 6.65053 9.51519 6.38901 9.23287 6.26113C9.09435 6.19838 8.96642 6.18261 8.8692 6.18012C8.82298 6.17894 8.78188 6.1808 8.75568 6.18208C8.75057 6.18233 8.74611 6.18255 8.7422 6.18274C8.72127 6.18377 8.71595 6.18403 8.7108 6.18403H8.70978H8.70875H8.70773H8.7067H8.70567H8.70464H8.7036H8.70257H8.70153H8.70049H8.69945H8.69841H8.69736H8.69631H8.69527H8.69421H8.69316H8.69211H8.69105H8.68999H8.68893H8.68787H8.68681H8.68574H8.68467H8.68361H8.68254H8.68146H8.68039H8.67931H8.67823H8.67715H8.67607H8.67499H8.6739H8.67282H8.67173H8.67064H8.66955H8.66845H8.66736H8.66626H8.66516H8.66406H8.66296H8.66186H8.66075H8.65965H8.65854H8.65743H8.65632H8.6552H8.65409H8.65297H8.65185H8.65073H8.64961H8.64849H8.64737H8.64624H8.64511H8.64399H8.64286H8.64172H8.64059H8.63946H8.63832H8.63718H8.63604H8.6349H8.63376H8.63262H8.63147H8.63033H8.62918H8.62803H8.62688H8.62573H8.62457H8.62342H8.62226H8.62111H8.61995H8.61879H8.61762H8.61646H8.6153H8.61413H8.61297H8.6118H8.61063H8.60946H8.60829H8.60711H8.60594H8.60476H8.60359H8.60241H8.60123H8.60005H8.59887H8.59768H8.5965H8.59531H8.59413H8.59294H8.59175H8.59056H8.58937H8.58818H8.58698H8.58579H8.58459H8.5834H8.5822H8.581H8.5798H8.5786H8.57739H8.57619H8.57499H8.57378H8.57257H8.57137H8.57016H8.56895H8.56774H8.56653H8.56531H8.5641H8.56288H8.56167H8.56045H8.55923H8.55802H8.5568H8.55558H8.55435H8.55313H8.55191H8.55069H8.54946H8.54823H8.54701H8.54578H8.54455H8.54332H8.54209H8.54086H8.53963H8.5384H8.53716H8.53593H8.53469H8.53346H8.53222H8.53098H8.52975H8.52851H8.52727H8.52603H8.52479H8.52354H8.5223H8.52106H8.51981H8.51857H8.51732H8.51608H8.51483H8.51358H8.51233H8.51109H8.50984H8.50859H8.50734H8.50608H8.50483H8.50358H8.50233H8.50107H8.49982H8.49856H8.49731H8.49605H8.49479H8.49354H8.49228H8.49102H8.48976H8.4885H8.48724H8.48598H8.48472H8.48346H8.4822H8.48094H8.47968H8.47841H8.47715H8.47588H8.47462H8.47336H8.47209H8.47082H8.46956H8.46829H8.46702H8.46576H8.46449H8.46322H8.46195H8.46069H8.45942H8.45815H8.45688H8.45561H8.45434H8.45307H8.4518H8.45053H8.44925H8.44798H8.44671H8.44544H8.44417H8.44289H8.44162H8.44035H8.43907H8.4378H8.43653H8.43525H8.43398H8.4327H8.43143H8.43016H8.42888H8.42761H8.42633H8.42506H8.42378H8.42251H8.42123H8.41996H8.41868H8.4174H8.41613H8.41485H8.41358H8.4123H8.41103H8.40975H8.40847H8.4072H8.40592H8.40464H8.40337H8.40209H8.40082H8.39954H8.39826H8.39699H8.39571H8.39444H8.39316H8.39189H8.39061H8.38934H8.38806H8.38679H8.38551H8.38424H8.38296H8.38169H8.38041H8.37914H8.37786H8.37659H8.37532H8.37404H8.37277H8.3715H8.37022H8.36895H8.36768H8.3664H8.36513H8.36386H8.36259H8.36132H8.36005H8.35878H8.3575H8.35623H8.35496H8.35369H8.35243H8.35116H8.34989H8.34862H8.34735H8.34608H8.34482H8.34355H8.34228H8.34102H8.33975H8.33849H8.33722H8.33596H8.33469H8.33343H8.33217H8.3309H8.32964H8.32838H8.32712H8.32586H8.3246H8.32334H8.32208H8.32082H8.31956H8.3183H8.31705H8.31579H8.31453H8.31328H8.31202H8.31077H8.30952H8.30826H8.30701H8.30576H8.30451H8.30326H8.30201H8.30076H8.29951H8.29826H8.29701H8.29576H8.29452H8.29327H8.29203H8.29078H8.28954H8.2883H8.28706H8.28582H8.28457H8.28333H8.2821H8.28086H8.27962H8.27838H8.27715H8.27591H8.27468H8.27345H8.27221H8.27098H8.26975H8.26852H8.26729H8.26606H8.26483H8.26361H8.26238H8.26116H8.25993H8.25871H8.25749H8.25627H8.25504H8.25383H8.25261H8.25139H8.25017H8.24896H8.24774H8.24653H8.24532H8.24411H8.24289H8.24168H8.24048H8.23927H8.23806H8.23686H8.23565H8.23445H8.23325H8.23204H8.23084H8.22964H8.22845H8.22725H8.22605H8.22486H8.22367H8.22247H8.22128H8.22009H8.2189H8.21772H8.21653H8.21534H8.21416H8.21298H8.21179H8.21061H8.20943H8.20826H8.20708H8.2059H8.20473H8.20356H8.20238H8.20121H8.20004H8.19888H8.19771H8.19654H8.19538H8.19422H8.19306H8.1919H8.19074H8.18958H8.18842H8.18727H8.18612H8.18496H8.18381H8.18266H8.18152H8.18037H8.17922H8.17808H8.17694H8.1758H8.17466H8.17352H8.17239H8.17125H8.17012H8.16899H8.16786H8.16673H8.1656H8.16447H8.16335H8.16223H8.16111H8.15999H8.15887H8.15775H8.15664H8.15553H8.15441H8.1533H8.1522H8.15109H8.14998H8.14888H8.14778H8.14668H8.14558H8.14448H8.14339H8.14229H8.1412H8.14011H8.13902H8.13794H8.13685H8.13577H8.13469H8.13361H8.13253H8.13145H8.13038H8.12931H8.12824H8.12717H8.1261H8.12503H8.12397H8.12291H8.12185H8.12079H8.11973H8.11868H8.11763H8.11658H8.11553H8.11448H8.11344H8.11239H8.11135H8.11031H8.10927H8.10824H8.10721H8.10617H8.10514H8.10412H8.10309H8.10207H8.10104C8.09458 6.18403 8.08791 6.18402 8.08102 6.18401C7.81575 6.18361 7.24276 6.18276 6.83047 6.73058C6.81382 6.7527 6.7858 6.78594 6.7496 6.82887C6.61531 6.98815 6.36846 7.28094 6.17206 7.63512C5.90497 8.11674 5.68467 8.76389 5.68467 9.63542C5.68467 10.5295 6.00582 11.3716 6.3291 11.9929C6.62105 12.554 6.94136 12.9848 7.09744 13.158C7.37605 13.5799 9.41821 16.6625 12.5973 17.9899C13.1059 18.2419 13.6 18.4178 13.9757 18.5516C14.1254 18.6049 14.2563 18.6516 14.3619 18.6936ZM14.0121 14.9593C14.0121 14.9593 14.0114 14.9593 14.0099 14.9591L14.0121 14.9593ZM10.7781 9.18145C10.7778 9.18087 10.7773 9.18007 10.7768 9.17903C10.7819 9.18714 10.7825 9.18913 10.7781 9.18145Z" stroke="#212121"/>
</svg>
